# xmcd
#
# Track frame offsets: 
#        150
#        45865
#        51846
#        64559
#        83638
#        102642
#        117810
#        136751
#        138051
#        147374
#        165451
#        181020
#        192389
#        217830
#        246989
#        259487
#        280678
#        318891
#
# Disc length: 4525 seconds
#
# Revision: 0
# Processed by: cddbd v1.5.2PL0 Copyright (c) Steve Scherf et al.
# Submitted via: ExactAudioCopy v0.95b3
#
DISCID=f511ab12
DTITLE=John Lennon  - Life Is What Happens - Disc 1
DYEAR=1900
DGENRE=
TTITLE0=Beautiful Boy
TTITLE1=Beautiful Boy
TTITLE2=Beautiful Boy
TTITLE3=Beautiful Boy
TTITLE4=Beautiful Boy
TTITLE5=Beautiful Boy
TTITLE6=Beautiful Boy
TTITLE7=Beautiful Boy
TTITLE8=Audio Verite'
TTITLE9=Beautiful Boy
TTITLE10=Beautiful Boy
TTITLE11=Serve Yourself
TTITLE12=Serve Yourself
TTITLE13=Serve Yourself
TTITLE14=Serve Yourself
TTITLE15=Serve Yourself
TTITLE16=Serve Yourself
TTITLE17=Serve Yourself
EXTD=
EXTT0=
EXTT1=
EXTT2=
EXTT3=
EXTT4=
EXTT5=
EXTT6=
EXTT7=
EXTT8=
EXTT9=
EXTT10=
EXTT11=
EXTT12=
EXTT13=
EXTT14=
EXTT15=
EXTT16=
EXTT17=
PLAYORDER=
